:FULLY-SPECIFIED
:FORCE-ALL-JOINTS-BE-3DOF
:DEGREES
291
root 10.0734 16.8193 3.86553 5.92687 1.46031 3.51196
lfemur -1.99224 4.39619 -29.1912
ltibia 16.6781 0 0
lfoot -18.9922 3.58028 0
ltoes 0.300512 0 0
rfemur -37.7107 3.36345 12.1597
rtibia 48.9408 0 0
rfoot -26.3621 -16.1581 0
rtoes -18.0866 0 0
lowerback -6.0401 -3.51357 -4.50163
upperback -0.179644 -4.41214 2.05938
thorax 3.70818 -2.28999 4.22023
lowerneck -21.1244 -3.96854 -11.6845
upperneck 22.2655 -4.76866 11.437
head 11.2949 -1.76474 5.44643
lclavicle -6.39254e-14 1.83596e-14 0
lhumerus -13.6103 -24.0601 87.6471
lradius 30.2663 0 0
lwrist 6.58328 0 0
lhand -13.2667 -23.2232 0
lfingers 7.12502 0 0
lthumb 12.8358 6.35634 0
rclavicle -6.39254e-14 1.83596e-14 0
rhumerus -46.8596 6.4569 -82.1799
rradius 38.9182 0 0
rwrist -20.7558 0 0
rhand -27.9358 -22.7438 0
rfingers 7.12502 0 0
rthumb -1.32386 -52.7164 0
292
root 10.0743 16.8117 4.00437 6.03098 1.83136 3.64808
lfemur -0.824997 4.294 -29.2259
ltibia 15.3519 0 0
lfoot -18.9494 3.32538 0
ltoes 0.369327 0 0
rfemur -38.2296 3.99697 11.4616
rtibia 47.4826 0 0
rfoot -26.7646 -16.4713 0
rtoes -18.3373 0 0
lowerback -6.18166 -3.60965 -4.66679
upperback -0.198977 -4.52088 2.04021
thorax 3.79202 -2.34794 4.27189
lowerneck -21.0189 -4.02441 -11.7289
upperneck 22.2574 -4.85031 11.4553
head 11.2852 -1.80651 5.44727
lclavicle -6.64597e-14 1.87409e-14 0
lhumerus -13.3828 -25.0608 87.8141
lradius 30.9013 0 0
lwrist 7.27456 0 0
lhand -13.1099 -23.1111 0
lfingers 7.12502 0 0
lthumb 12.9869 6.4581 0
rclavicle -6.64597e-14 1.87409e-14 0
rhumerus -47.013 6.35058 -82.1733
rradius 38.5372 0 0
rwrist -20.5376 0 0
rhand -27.8219 -22.9208 0
rfingers 7.12502 0 0
rthumb -1.21385 -52.8939 0
293
root 10.0746 16.8037 4.1438 6.13997 2.20604 3.78209
lfemur 0.337571 4.19414 -29.2533
ltibia 14.0241 0 0
lfoot -18.8908 3.06666 0
ltoes 0.440254 0 0
rfemur -38.7234 4.64092 10.7571
rtibia 45.9835 0 0
rfoot -27.1429 -16.7713 0
rtoes -18.5902 0 0
lowerback -6.32601 -3.70356 -4.83206
upperback -0.221202 -4.62659 2.02065
thorax 3.87447 -2.40435 4.3232
lowerneck -20.9094 -4.08318 -11.7761
upperneck 22.2455 -4.93607 11.4767
head 11.2742 -1.85013 5.44895
lclavicle -6.89566e-14 1.91293e-14 0
lhumerus -13.1781 -26.067 87.9884
lradius 31.5399 0 0
lwrist 7.97012 0 0
lhand -12.9461 -22.997 0
lfingers 7.12502 0 0
lthumb 13.1447 6.56138 0
rclavicle -6.89566e-14 1.91293e-14 0
rhumerus -47.1697 6.24422 -82.1709
rradius 38.1481 0 0
rwrist -20.3176 0 0
rhand -27.7074 -23.105 0
rfingers 7.12502 0 0
rthumb -1.10328 -53.0787 0
294
root 10.0742 16.7953 4.28387 6.25278 2.58303 3.91314
lfemur 1.49128 4.09704 -29.2724
ltibia 12.7034 0 0
lfoot -18.8156 2.80569 0
ltoes 0.51161 0 0
rfemur -39.1925 5.29104 10.0513
rtibia 44.4541 0 0
rfoot -27.4967 -17.0564 0
rtoes -18.8432 0 0
lowerback -6.47217 -3.79518 -4.99643
upperback -0.246015 -4.7292 2.00096
thorax 3.95517 -2.45916 4.37397
lowerneck -20.797 -4.14436 -11.8256
upperneck 22.2301 -5.0253 11.501
head 11.2621 -1.89528 5.45146
lclavicle -7.14026e-14 1.95204e-14 0
lhumerus -12.9961 -27.0729 88.1696
lradius 32.178 0 0
lwrist 8.6659 0 0
lhand -12.7766 -22.8816 0
lfingers 7.12502 0 0
lthumb 13.3081 6.66559 0
rclavicle -7.14026e-14 1.95204e-14 0
rhumerus -47.3287 6.13818 -82.1721
rradius 37.7527 0 0
rwrist -20.0965 0 0
rhand -27.593 -23.2951 0
rfingers 7.12502 0 0
rthumb -0.992783 -53.2693 0
295
root 10.0731 16.7866 4.42464 6.36834 2.96099 4.0404
lfemur 2.63195 4.00315 -29.2822
ltibia 11.3989 0 0
lfoot -18.7229 2.54402 0
ltoes 0.581714 0 0
rfemur -39.6369 5.94308 9.34921
rtibia 42.9054 0 0
rfoot -27.8259 -17.3252 0
rtoes -19.0946 0 0
lowerback -6.61918 -3.88436 -5.15892
upperback -0.27311 -4.82866 1.98139
thorax 4.03378 -2.51234 4.42402
lowerneck -20.6823 -4.20752 -11.8771
upperneck 22.2116 -5.11737 11.5281
head 11.249 -1.94164 5.45479
lclavicle -7.37842e-14 1.99096e-14 0
lhumerus -12.8365 -28.0731 88.3573
lradius 32.8116 0 0
lwrist 9.35784 0 0
lhand -12.6026 -22.7655 0
lfingers 7.12502 0 0
lthumb 13.4757 6.77013 0
rclavicle -7.37842e-14 1.99096e-14 0
rhumerus -47.4885 6.0328 -82.1762
rradius 37.3533 0 0
rwrist -19.8754 0 0
rhand -27.4794 -23.4894 0
rfingers 7.12502 0 0
rthumb -0.883032 -53.4641 0
296
root 10.0714 16.7776 4.56616 6.48561 3.33857 4.16303
lfemur 3.7554 3.91292 -29.2819
ltibia 10.1194 0 0
lfoot -18.6121 2.2832 0
ltoes 0.648884 0 0
rfemur -40.0566 6.59277 8.65609
rtibia 41.3481 0 0
rfoot -28.1299 -17.5762 0
rtoes -19.3423 0 0
lowerback -6.76606 -3.97097 -5.31853
upperback -0.302182 -4.92491 1.96221
thorax 4.10995 -2.56382 4.47313
lowerneck -20.5662 -4.27218 -11.9303
upperneck 22.1903 -5.21163 11.5577
head 11.2352 -1.98888 5.45892
lclavicle -7.6088e-14 2.02925e-14 0
lhumerus -12.6992 -29.0618 88.5511
lradius 33.4369 0 0
lwrist 10.0419 0 0
lhand -12.4256 -22.6496 0
lfingers 7.12502 0 0
lthumb 13.6463 6.87439 0
rclavicle -7.6088e-14 2.02925e-14 0
rhumerus -47.6481 5.92844 -82.1829
rradius 36.9518 0 0
rwrist -19.6551 0 0
rhand -27.3672 -23.6865 0
rfingers 7.12502 0 0
rthumb -0.774682 -53.6616 0
297
root 10.0691 16.7684 4.7085 6.60351 3.71444 4.28017
lfemur 4.85744 3.82678 -29.2704
ltibia 8.87394 0 0
lfoot -18.4822 2.02478 0
ltoes 0.711438 0 0
rfemur -40.4517 7.23587 7.97702
rtibia 39.7932 0 0
rfoot -28.4085 -17.8078 0
rtoes -19.5845 0 0
lowerback -6.91183 -4.05486 -5.47427
upperback -0.332925 -5.01789 1.94367
thorax 4.18333 -2.61357 4.52112
lowerneck -20.4496 -4.3379 -11.9846
upperneck 22.1666 -5.30744 11.5898
head 11.2207 -2.03667 5.46383
lclavicle -7.83005e-14 2.06648e-14 0
lhumerus -12.5839 -30.0335 88.7505
lradius 34.0499 0 0
lwrist 10.7139 0 0
lhand -12.2467 -22.5343 0
lfingers 7.12502 0 0
lthumb 13.8187 6.97777 0
rclavicle -7.83005e-14 2.06648e-14 0
rhumerus -47.8062 5.82545 -82.1915
rradius 36.5502 0 0
rwrist -19.4364 0 0
rhand -27.2571 -23.8847 0
rfingers 7.12502 0 0
rthumb -0.668392 -53.8603 0
298
root 10.0662 16.7592 4.8517 6.72098 4.08726 4.39099
lfemur 5.93391 3.74518 -29.2468
ltibia 7.67135 0 0
lfoot -18.3323 1.77033 0
ltoes 0.767694 0 0
rfemur -40.8225 7.8681 7.31714
rtibia 38.2514 0 0
rfoot -28.6614 -18.0186 0
rtoes -19.8191 0 0
lowerback -7.05552 -4.1359 -5.62514
upperback -0.365034 -5.10755 1.92603
thorax 4.25359 -2.66153 4.56779
lowerneck -20.3333 -4.40422 -12.0399
upperneck 22.1408 -5.40417 11.624
head 11.2058 -2.08469 5.46951
lclavicle -8.04083e-14 2.10219e-14 0
lhumerus -12.4905 -30.9824 88.955
lradius 34.6467 0 0
lwrist 11.3699 0 0
lhand -12.0673 -22.4205 0
lfingers 7.12502 0 0
lthumb 13.9916 7.07967 0
rclavicle -8.04083e-14 2.10219e-14 0
rhumerus -47.9617 5.72418 -82.2016
rradius 36.1507 0 0
rwrist -19.2202 0 0
rhand -27.1499 -24.0826 0
rfingers 7.12502 0 0
rthumb -0.564821 -54.0587 0
299
root 10.0626 16.75 4.99583 6.83697 4.4557 4.49465
lfemur 6.9806 3.66856 -29.2101
ltibia 6.52057 0 0
lfoot -18.1618 1.5214 0
ltoes 0.81597 0 0
rfemur -41.1688 8.48523 6.68157
rtibia 36.7336 0 0
rfoot -28.8882 -18.207 0
rtoes -20.0442 0 0
lowerback -7.19616 -4.21394 -5.77017
upperback -0.398205 -5.19382 1.90954
thorax 4.32038 -2.70766 4.61294
lowerneck -20.2181 -4.47068 -12.0956
upperneck 22.1132 -5.50117 11.6603
head 11.1907 -2.13261 5.47595
lclavicle -8.23979e-14 2.13594e-14 0
lhumerus -12.4188 -31.9032 89.1642
lradius 35.2233 0 0
lwrist 12.0058 0 0
lhand -11.8887 -22.3089 0
lfingers 7.12502 0 0
lthumb 14.1638 7.17949 0
rclavicle -8.23979e-14 2.13594e-14 0
rhumerus -48.1132 5.62498 -82.2126
rradius 35.7552 0 0
rwrist -19.0074 0 0
rhand -27.0462 -24.2787 0
rfingers 7.12502 0 0
rthumb -0.464626 -54.2552 0
300
root 10.0585 16.7408 5.14094 6.95042 4.81843 4.5903
lfemur 7.99335 3.59737 -29.1594
ltibia 5.43053 0 0
lfoot -17.9698 1.27953 0
ltoes 0.854585 0 0
rfemur -41.4909 9.08298 6.07544
rtibia 35.2507 0 0
rfoot -29.0886 -18.3715 0
rtoes -20.2579 0 0
lowerback -7.33278 -4.28885 -5.90834
upperback -0.432131 -5.27666 1.89446
thorax 4.38335 -2.7519 4.65639
lowerneck -20.1048 -4.53681 -12.1514
upperneck 22.0843 -5.59781 11.6984
head 11.1754 -2.1801 5.48312
lclavicle -8.4256e-14 2.16729e-14 0
lhumerus -12.3686 -32.7899 89.3777
lradius 35.7757 0 0
lwrist 12.6176 0 0
lhand -11.712 -22.2001 0
lfingers 7.12502 0 0
lthumb 14.334 7.27663 0
rclavicle -8.4256e-14 2.16729e-14 0
rhumerus -48.2595 5.52821 -82.224
rradius 35.3658 0 0
rwrist -18.7987 0 0
rhand -26.9466 -24.4713 0
rfingers 7.12502 0 0
rthumb -0.368467 -54.4483 0
